<?xml version="1.0" encoding="UTF-8" standalone="no"?>
<!-- Created with Inkscape (http://www.inkscape.org/) -->

<svg
   width="1920"
   height="1080"
   viewBox="0 0 508 285.75"
   version="1.1"
   id="svg2857"
   inkscape:version="1.1.2 (0a00cf5339, 2022-02-04)"
   sodipodi:docname="horizonlogorealtranspback.svg"
   xmlns:inkscape="http://www.inkscape.org/namespaces/inkscape"
   xmlns:sodipodi="http://sodipodi.sourceforge.net/DTD/sodipodi-0.dtd"
   xmlns:xlink="http://www.w3.org/1999/xlink"
   xmlns="http://www.w3.org/2000/svg"
   xmlns:svg="http://www.w3.org/2000/svg"
   xmlns:krita="http://krita.org/namespaces/svg/krita">
  <sodipodi:namedview
     id="namedview2859"
     pagecolor="#505050"
     bordercolor="#eeeeee"
     borderopacity="1"
     inkscape:pageshadow="0"
     inkscape:pageopacity="0"
     inkscape:pagecheckerboard="0"
     inkscape:document-units="mm"
     showgrid="false"
     inkscape:zoom="0.5"
     inkscape:cx="958"
     inkscape:cy="465"
     inkscape:window-width="1920"
     inkscape:window-height="1008"
     inkscape:window-x="1920"
     inkscape:window-y="0"
     inkscape:window-maximized="1"
     inkscape:current-layer="layer1"
     units="px" />
  <defs
     id="defs2854">
    <linearGradient
       inkscape:collect="always"
       id="linearGradient5293">
      <stop
         style="stop-color:#49b0b7;stop-opacity:1;"
         offset="0"
         id="stop5289" />
      <stop
         style="stop-color:#49b0b7;stop-opacity:0;"
         offset="1"
         id="stop5291" />
    </linearGradient>
    <linearGradient
       inkscape:collect="always"
       xlink:href="#linearGradient5293"
       id="linearGradient5295"
       x1="19.167456"
       y1="125.48515"
       x2="186.97073"
       y2="125.48515"
       gradientUnits="userSpaceOnUse" />
  </defs>
  <g
     inkscape:groupmode="layer"
     id="layer2"
     inkscape:label="Layer 2"
     style="display:none"
     sodipodi:insensitive="true">
    <rect
       style="fill:#465e9c;fill-opacity:1;stroke:#000000;stroke-width:0.264391;stroke-linecap:round;stroke-miterlimit:4;stroke-dasharray:none;stroke-opacity:0"
       id="rect874"
       width="507.7356"
       height="285.4856"
       x="0.1321955"
       y="0.1321955" />
  </g>
  <g
     inkscape:label="Layer 1"
     inkscape:groupmode="layer"
     id="layer1">
    <path
       style="fill:#000000;stroke-width:0.264583"
       id="path3545"
       d="" />
    <path
       style="fill:#000000;stroke-width:0.264583"
       id="path3291"
       d="" />
    <g
       id="g2790"
       transform="matrix(7.2618016,0,0,7.2618016,-6917.2173,-3159.6238)"
       fill="none">
      <g
         id="T_00000096039931768158447280000006776675764165392010_-9"
         transform="matrix(0.16418885,0,0,0.16418885,769.83386,396.40118)"
         fill="none">
        <path
           id="polygon1316-1"
           transform="translate(1335.214,407.232)"
           fill="none"
           stroke="#49b0b7"
           stroke-width="1"
           stroke-linecap="butt"
           stroke-linejoin="miter"
           stroke-miterlimit="2"
           d="M 18.382,10.57 H 31.294 V 4.532 L 26.763,0 0,0.006 v 8.669 l 1.896,1.895 h 7.486 v 5.221 l 7.885,7.885 H 20.28 V 12.468 Z"
           sodipodi:nodetypes="ccccccccccccc" />
        <path
           id="polygon1318-2"
           transform="translate(1344.596,430.434)"
           fill="none"
           stroke="#49b0b7"
           stroke-width="1"
           stroke-linecap="butt"
           stroke-linejoin="miter"
           stroke-miterlimit="2"
           d="M 0,12.865 H 10.898 V 7.843 L 3.055,0 H 0 Z"
           sodipodi:nodetypes="cccccc" />
      </g>
      <g
         id="T_00000096039931768158447280000006776675764165392010_-3"
         transform="matrix(0.16418885,0,0,0.16418885,758.31196,396.40118)"
         fill="none">
        <path
           id="polygon1316-5"
           transform="translate(1335.214,407.232)"
           fill="none"
           stroke="#49b0b7"
           stroke-width="1"
           stroke-linecap="butt"
           stroke-linejoin="miter"
           stroke-miterlimit="2"
           d="M 20.28,23.676 V 12.468 L 18.382,10.57 H 31.294 V 4.532 L 26.763,0 0,0.006 v 8.669 l 1.896,1.895 h 7.486 v 5.221 l 7.885,7.885 z"
           sodipodi:nodetypes="ccccccccccccc" />
        <path
           id="polygon1318-6"
           transform="translate(1344.596,430.434)"
           fill="none"
           stroke="#49b0b7"
           stroke-width="1"
           stroke-linecap="butt"
           stroke-linejoin="miter"
           stroke-miterlimit="2"
           d="M 3.055,0 H 0 V 12.865 H 10.898 V 7.843 Z"
           sodipodi:nodetypes="cccccc" />
      </g>
      <g
         id="S_00000173135029979409979950000000935225552703738289_-3"
         transform="matrix(0.16418885,0,0,0.16418885,763.04636,396.39921)"
         fill="none">
        <path
           id="polygon1321-6"
           transform="translate(1271.443,411.403)"
           fill="none"
           stroke="#49b0b7"
           stroke-width="1"
           stroke-linecap="butt"
           stroke-linejoin="miter"
           stroke-miterlimit="2"
           d="M 28.102,22.614 H 31.3 L 31.302,12.613 26.85,8.17 H 8.171 L 0,0 v 13.343 l 5.8,5.8 h 18.831 z"
           sodipodi:nodetypes="cccccccccc" />
        <path
           id="polygon1323-7"
           transform="translate(1271.441,433.629)"
           fill="none"
           stroke="#49b0b7"
           stroke-width="1"
           stroke-linecap="butt"
           stroke-linejoin="miter"
           stroke-miterlimit="2"
           d="M 31.302,7.999 23.348,0 H 0 l 0.002,3.31 6.372,6.372 h 24.928 z"
           sodipodi:nodetypes="ccccccc" />
        <path
           id="polygon1325-5"
           transform="translate(1274.832,407.244)"
           fill="none"
           stroke="#49b0b7"
           stroke-width="1"
           stroke-linecap="butt"
           stroke-linejoin="miter"
           stroke-miterlimit="2"
           d="M 0,3.19 6.049,9.239 27.911,9.235 V 4.49 L 23.467,0 H 0 Z"
           sodipodi:nodetypes="ccccccc" />
      </g>
      <g
         id="N_00000097485282676863180680000017391085534023073199_-6"
         transform="matrix(0.16418885,0,0,0.16418885,843.67772,396.40102)"
         fill="none">
        <path
           id="polygon1340-0"
           transform="translate(996.234,426.363)"
           fill="none"
           stroke="#49b0b7"
           stroke-width="1"
           stroke-linecap="butt"
           stroke-linejoin="miter"
           stroke-miterlimit="2"
           d="M 9.335,6.267 3.067,0 H 0 v 12.448 l 4.444,4.49 h 4.891 z"
           sodipodi:nodetypes="ccccccc" />
        <path
           id="polygon1342-6"
           transform="translate(974.267,407.232)"
           fill="none"
           stroke="#49b0b7"
           stroke-width="1"
           stroke-linecap="butt"
           stroke-linejoin="miter"
           stroke-miterlimit="2"
           d="M 9.335,11.769 7.449,9.884 H 20.14 L 31.302,21.042 V 4.49 L 26.812,0 H 0 v 31.579 l 4.49,4.49 h 4.845 z"
           sodipodi:nodetypes="ccccccccccc" />
      </g>
      <g
         id="_x31__00000150065195341716976880000015436809590563037577_-7"
         transform="matrix(0.16418885,0,0,0.16418885,882.84983,396.39913)"
         fill="none">
        <path
           id="polygon1367-0"
           transform="translate(682.542,419.53)"
           fill="none"
           stroke="#49b0b7"
           stroke-width="1"
           stroke-linecap="butt"
           stroke-linejoin="miter"
           stroke-miterlimit="2"
           d="M 10.572,23.771 V 7.869 L 2.703,0 H 0 v 19.28 l 4.444,4.491 z"
           sodipodi:nodetypes="ccccccc" />
        <path
           id="polygon1369-9"
           transform="translate(682.542,407.255)"
           fill="none"
           stroke="#49b0b7"
           stroke-width="1"
           stroke-linecap="butt"
           stroke-linejoin="miter"
           stroke-miterlimit="2"
           d="M 10.572,4.396 6.22,0 H 0 V 5.219 L 10.572,15.79 Z"
           sodipodi:nodetypes="cccccc" />
      </g>
      <path
         id="A_00000131353138721671392630000016445824024581063838_-2"
         transform="matrix(0.16418885,0,0,0.16418885,983.38424,463.2638)"
         fill="none"
         stroke="#49b0b7"
         stroke-width="1"
         stroke-linecap="butt"
         stroke-linejoin="miter"
         stroke-miterlimit="2"
         d="m 23.866,36.071 h 7.437 V 9.731 L 21.558,0 H 0 v 31.581 l 4.49,4.49 h 4.845 v -4.542 h 9.552 V 24.092 L 16.99,22.194 H 9.335 V 11.237 L 7.437,9.339 h 10.259 l 4.272,4.273 v 20.561 z"
         sodipodi:nodetypes="ccccccccccccccccccc" />
      <path
         id="O_00000041277332964532566580000006727141545737059978_-3"
         transform="matrix(0.16418885,0,0,0.16418885,997.60658,463.26397)"
         fill="none"
         stroke="#49b0b7"
         stroke-width="1"
         stroke-linecap="butt"
         stroke-linejoin="miter"
         stroke-miterlimit="2"
         d="M 26.859,0 H 3.29 v 3.09 l 6.244,6.245 h 7.99 l 4.443,4.489 v 12.91 L 11.211,26.733 9.327,24.849 9.335,13.634 3.29,7.589 H 0 v 23.99 l 4.444,4.49 h 22.369 l 4.489,-4.444 V 4.49 Z"
         sodipodi:nodetypes="cccccccccccccccccc" />
    </g>
    <text
       id="shape0"
       krita:useRichText="true"
       krita:textVersion="2"
       fill="#49b0b7"
       stroke-opacity="0"
       stroke="#000000"
       stroke-width="0"
       stroke-linecap="square"
       stroke-linejoin="bevel"
       font-family="SAIBA-45"
       font-size="62.8719px"
       font-size-adjust="0.63125"
       font-stretch="normal"
       letter-spacing="0"
       word-spacing="0"
       x="31.294041"
       y="200.03419"
       style="fill:#49b0b7;fill-opacity:1;stroke:#000000;stroke-opacity:0"><tspan
         x="31.294041"
         id="tspan5122"
         style="fill:#49b0b7;fill-opacity:1;stroke:#000000;stroke-width:0;stroke-opacity:0">HORIZON</tspan></text>
    <g
       id="g4928"
       transform="matrix(1.1881299,0,0,1.1881299,97.153853,57.495563)"
       fill="none">
      <path
         id="path4847"
         transform="translate(25.162484,34.388389)"
         fill="#49b0b7"
         stroke-opacity="0"
         stroke="#000000"
         stroke-width="0"
         stroke-linecap="square"
         stroke-linejoin="bevel"
         d="M 248.302,99.2368 C 244.503,82.4772 235.983,67.1754 222.981,53.76 210.041,40.409 194.122,29.9996 175.3,22.5829 144.024,10.2585 107.756,7.69401 74.0792,15.4255 55.4879,19.6937 37.7976,27.2878 22.7295,37.4688 L 19.1252,39.904 9.76776,39.8999 C 4.62115,39.8977 0.262348,39.8019 0.0815391,39.6871 -0.303547,39.4425 0.630221,38.5066 3.84987,35.91 27.4362,16.8882 57.7252,4.82145 91.7612,0.887428 102.403,-0.342626 124.133,-0.284755 135.438,1.00375 c 20.836,2.37466 42.066,8.55664 59.62,17.36015 33.168,16.6345 56.727,42.4931 65.689,72.1036 1.072,3.5407 1.704,6.1316 1.98,8.1078 l 0.194,1.3891 h -7.227 -7.227 z"
         sodipodi:nodetypes="cccccccccccccccccc" />
    </g>
    <g
       id="group0"
       transform="matrix(1.3098306,0,0,1.3098306,325.51491,29.7044)"
       fill="none"
       style="stroke-width:6.48938878;stroke-miterlimit:8.19999981;stroke-dasharray:none;stroke:#49b0b7;stroke-opacity:1;fill:none;fill-opacity:1;stroke-linejoin:miter">
      <path
         id="path2070"
         transform="matrix(0.21242962,0.11168543,-0.11168543,0.21242962,31.279335,0)"
         fill="none"
         stroke="#49b0b7"
         stroke-width="26.7024"
         stroke-linecap="round"
         stroke-linejoin="miter"
         stroke-miterlimit="9"
         d="m 183.545,279.605 c -2.119,-14.86 -4.239,-29.72 -6.358,-44.58 L 0,202.621 178.321,177.187 210.726,0 236.16,178.321 413.347,210.726 235.025,236.16 c -2.809,14.559 -5.573,29.203 -8.306,43.906"
         sodipodi:nodetypes="ccccccccc"
         style="stroke-width:27.03912491;stroke-miterlimit:8.19999981;stroke-dasharray:none;stroke:#49b0b7;stroke-opacity:1;fill:none;fill-opacity:1;stroke-linejoin:miter" />
    </g>
    <g
       id="group0-3"
       transform="matrix(1.3098306,0,0,1.3098306,8.262453,1.0486513)"
       fill="none"
       style="display:none">
      <path
         id="path2070-6"
         transform="matrix(0.21242962,0.11168543,-0.11168543,0.21242962,31.279335,0)"
         fill="none"
         stroke="#49b0b7"
         stroke-width="26.7024"
         stroke-linecap="round"
         stroke-linejoin="miter"
         stroke-miterlimit="9"
         d="m 183.545,279.605 c -2.119,-14.86 -4.239,-29.72 -6.358,-44.58 L 0,202.621 178.321,177.187 210.726,0 236.16,178.321 413.347,210.726 235.025,236.16 c -2.809,14.559 -5.573,29.203 -8.306,43.906"
         sodipodi:nodetypes="ccccccccc" />
    </g>
  </g>
</svg>
